<svg xmlns="http://www.w3.org/2000/svg" xmlns:xlink="http://www.w3.org/1999/xlink" viewBox="0 0 369.93 369.93"><defs><style>.cls-1{fill:url(#linear-gradient);}.cls-2{fill:url(#linear-gradient-2);}</style><linearGradient id="linear-gradient" y1="184.97" x2="369.93" y2="184.97" gradientUnits="userSpaceOnUse"><stop offset="0" stop-color="#f2bf42"/><stop offset="1" stop-color="#eda73b"/></linearGradient><linearGradient id="linear-gradient-2" x1="-590.55" y1="928.71" x2="-364.93" y2="928.71" gradientTransform="translate(870.37 -598.7) rotate(14)" gradientUnits="userSpaceOnUse"><stop offset="0" stop-color="#fff"/><stop offset="1" stop-color="#fff" stop-opacity="0.82"/></linearGradient></defs><g id="Layer_2" data-name="Layer 2"><g id="Layer_1-2" data-name="Layer 1"><circle class="cls-1" cx="184.97" cy="184.97" r="184.97"/><path class="cls-2" d="M302.79,157.37a47.46,47.46,0,0,0-18-33.43c-14.23-10.5-31.88-19.82-51.05-27.26l3.88-15.58c1.93-7.69-2.18-15.35-9.15-17.09s-14.2,3.09-16.12,10.8l-3.42,13.55c-8.36-2.4-16.87-4.41-25.35-6l3-11.84c1.92-7.7-2.19-15.36-9.16-17.1s-14.18,3.1-16.1,10.8l-3.66,14.65a195.39,195.39,0,0,0-29.88-.21,45.54,45.54,0,0,0-21.63,6.55c-12,6.92-21.36,21.66-23.44,35.23a50.15,50.15,0,0,0,.56,19.84,47.84,47.84,0,0,1,1.15,10.4,45.19,45.19,0,0,1-1.59,11.41L69.61,210.71c-3.74,10.56-4.69,33.07,8.75,48.23a42.65,42.65,0,0,0,21.25,13.47c3,.84,6.08,1.57,9.14,2.24l-3.16,12.67c-1.92,7.7,2.19,15.35,9.16,17.1s14.2-3.09,16.12-10.8l3.45-13.91c4.3.9,8.59,1.89,12.84,3.09s8.22,2.45,12.3,3.82l-3.15,12.62c-1.92,7.71,2.18,15.37,9.16,17.11s14.18-3.1,16.1-10.81l2.59-10.19c7.09,2.54,14.19,5,21.36,7.08,13.11,3.6,25.69,2.16,38.25-6.28,14.15-9.8,19.58-24.72,21.56-32.82,2.72-11.07,5.7-22.07,8.77-33,2-6.65,4.36-17.92,8.14-23.73,4.28-7.22,9.83-10.76,13.62-17.91A54,54,0,0,0,302.79,157.37Zm-40.14,13.49c-2.58,8.61-9.17,11.94-14,19.76a.1.1,0,0,1,0,.06A67.05,67.05,0,0,0,239.88,210q-6.9,24.81-13.81,49.64c-4,15.88-19.86,28.77-36.55,22.05-.6-.19-1.2-.37-1.8-.57h0c-8.22-2.61-16.37-5.67-24.67-8.52h0c-6.51-2.23-13.1-4.34-19.88-5.95q-2.62-.63-5.2-1.2c-8.78-2-17.19-3.53-25.48-5.41-3.21-.72-6.39-1.49-9.57-2.34a28.41,28.41,0,0,1-11.14-5.73C80.76,243,79.9,227,83,218.15l14.59-52.24a60.8,60.8,0,0,0,2.12-15.32,57.83,57.83,0,0,0-1.54-13.68c-4.82-19.77,9.63-36.74,24.5-38.37a145.66,145.66,0,0,1,30.25-1,180.93,180.93,0,0,1,25.92,3.64,193.47,193.47,0,0,1,25.08,7.1H204c2.94,1,5.85,2.16,8.74,3.36l.54.21c1.62.68,3.23,1.38,4.83,2.12,3.41,1.52,6.76,3.16,10,4.89l0,0a148.12,148.12,0,0,1,25.28,16.77C263.75,143.47,266.68,158.46,262.65,170.86Z"/></g></g></svg>