<?xml version="1.0" encoding="utf-8"?>
<!-- Generator: Adobe Illustrator 27.7.0, SVG Export Plug-In . SVG Version: 6.00 Build 0)  -->
<svg version="1.1" id="Layer_1" xmlns="http://www.w3.org/2000/svg" xmlns:xlink="http://www.w3.org/1999/xlink" x="0px" y="0px"
	 viewBox="0 0 204 27" style="enable-background:new 0 0 204 27;" xml:space="preserve">
<style type="text/css">
	.st0{fill:#FFFFFF;}
</style>
<g>
	<path class="st0" d="M76.3,24.2L69.2,15l-2.1,2.2v6.9h-4.3V2.4h4.3v9.4l8.6-9.4H81L72,12l9.5,12.2L76.3,24.2L76.3,24.2z"/>
	<path class="st0" d="M159.1,2.6h1.7v21.7h-1.7V2.6z"/>
	<path class="st0" d="M20.8,10c0-1.5-0.4-2.8-1.1-4c-0.7-1.2-1.7-2-3-2.7c-1.3-0.6-2.7-0.9-4.4-0.9H2v21.7l10.5,0
		c2.7,0,4.7-0.7,6.1-2.1c1.4-1.4,2.1-3.4,2.1-6.1V10z M16.1,10.2v5.6c0,1.4-0.3,2.5-0.9,3.2c-0.6,0.7-1.5,1.1-2.8,1.1
		c0,0-3.9,0-4.8,0c-0.6,0-0.9-0.3-0.9-1c0-0.5,0-12.4,0-12.4h5.6c1.2,0,2.1,0.3,2.8,1C15.8,8.2,16.1,9.1,16.1,10.2z"/>
	<path class="st0" d="M30.8,2.4h-2l-8.5,21.7h4.8l1.9-5h7.7l1.9,5h4.8L33.7,4.4C33.2,3.1,32.2,2.4,30.8,2.4z M33.4,15.2h-5.1
		l2.6-6.9L33.4,15.2z"/>
	<path class="st0" d="M103.2,24c-0.3-0.3-0.4-0.7-0.4-1.2V2.6h14v1.5h-12.3v8.4h9.8V14h-9.8v8.9h12.3v1.5h-12.4
		C103.9,24.4,103.5,24.2,103.2,24z"/>
	<path class="st0" d="M132.5,18.1h-9.8l-2.4,6.3h-1.8l8.3-21.7h0.8c0.5,0,0.9,0.3,1.1,0.9l7.9,20.8h-1.8L132.5,18.1z M123.2,16.6
		h8.7l-4.4-11.7h0L123.2,16.6z"/>
	<path class="st0" d="M138.7,24.3V2.6h8.6c1.5,0,2.8,0.3,3.9,0.9s2,1.4,2.6,2.5s0.9,2.3,0.9,3.7v7.2c0,2.5-0.6,4.4-1.9,5.7
		c-1.3,1.3-3.1,1.9-5.5,1.9L138.7,24.3z M147.4,22.8c1.9,0,3.3-0.5,4.3-1.5c0.9-1,1.4-2.5,1.4-4.5V9.6c0-1.7-0.5-3-1.6-3.9
		c-1.1-1-2.5-1.5-4.3-1.5h-6.9c0,0,0,17.5,0,17.8c0,0.3,0,0.9,0.8,0.9C142,22.8,147.4,22.8,147.4,22.8z"/>
	<path class="st0" d="M165.5,2.6h1.7l12.5,19v-19h1.7v21.7h-1.7l-12.6-19v19h-1.7L165.5,2.6L165.5,2.6z"/>
	<path class="st0" d="M188.2,23.6c-1-0.6-1.8-1.5-2.4-2.7c-0.6-1.2-0.8-2.5-0.8-4V10c0-1.5,0.3-2.9,0.9-4s1.4-2.1,2.5-2.7
		s2.3-0.9,3.7-0.9h3.3c1.3,0,2.5,0.3,3.5,0.8s1.8,1.3,2.3,2.4c0.6,1,0.8,2.1,0.8,3.5h-1.7c0-1.5-0.5-2.8-1.4-3.7
		c-0.9-0.9-2.1-1.4-3.7-1.4h-3.3c-1.6,0-2.8,0.6-3.8,1.7c-0.9,1.1-1.4,2.6-1.4,4.5v6.8c0,1.9,0.5,3.4,1.4,4.5
		c0.9,1.1,2.2,1.7,3.7,1.7h3.4c1.5,0,2.8-0.5,3.8-1.6c0.9-1.1,1.4-2.4,1.4-4.1v-2.5h-4.6v-1.5h6.2v4c0,1.4-0.3,2.7-0.8,3.8
		c-0.6,1.1-1.4,1.9-2.4,2.6c-1,0.6-2.2,0.9-3.6,0.9h-3.4C190.4,24.6,189.2,24.3,188.2,23.6z"/>
	<path class="st0" d="M57.6,15.7c1.7-0.9,2.7-2.4,2.9-4.2c0,0,0,0,0-0.1c0-0.1,0-0.2,0-0.3c0-0.1,0-0.3,0-0.5v-0.1l0,0l0,0V8.1
		c0-1.7-0.6-3.1-1.8-4.1c-1.2-1-2.7-1.5-4.6-1.5H42.6v21.7h4.6v-7.6h4.9h1.3l3,7.6h4.8L57.6,15.7z M53.4,12.5c0,0-4,0-5,0
		s-1.1-0.7-1.1-1.1s0-4.8,0-4.8h6.8c0.6,0,1,0.1,1.3,0.5c0.3,0.3,0.5,0.7,0.5,1.3v2c0,0.7-0.2,1.2-0.7,1.6
		C54.8,12.3,54.2,12.5,53.4,12.5z"/>
	<path class="st0" d="M95.7,14.4c2.1-0.5,3.5-2.1,3.7-4.5c0-0.1,0-0.3,0-0.4v0v0l0,0V7.1c0-1.4-0.5-2.5-1.4-3.3
		c-0.9-0.8-2.1-1.3-3.7-1.3H84.2v21.7h1.7v-9.7h6.7H94l4.4,9.6h1.8L95.7,14.4z M93.7,13h-6.7c-1,0-1.1-0.6-1.1-1V3.9h8.5
		c1,0,1.8,0.3,2.4,0.8c0.6,0.6,0.9,1.3,0.9,2.2v2.5c0,1.1-0.4,1.9-1.1,2.6C95.8,12.7,94.8,13,93.7,13z"/>
</g>
</svg>
