<svg width="256" height="256" viewBox="0 0 256 256" fill="none" xmlns="http://www.w3.org/2000/svg">
<g clip-path="url(#clip0)">
<ellipse cx="127.568" cy="139.432" rx="108.568" ry="108.568" transform="rotate(180 127.568 139.432)" fill="#163EB2"/>
<path d="M109.696 135.168C105.609 138.743 101.819 143.047 99.0059 148.17C87.4096 169.292 96.3305 196.426 96.3305 196.426C96.3305 196.426 124.013 189.388 135.609 168.266C138.422 163.142 140.018 157.634 140.84 152.267L109.696 135.168Z" fill="#C20404"/>
<path d="M149.728 144.612L165.36 163.087L177.657 135.974L170.393 121.454C192.611 93.2816 200.564 69.7567 202.291 51.9332C204.762 27.5056 195.498 13.8597 195.498 13.8597C195.498 13.8597 179.011 13.3677 159.707 28.5539C145.617 39.5898 130.037 58.9274 118.173 92.7839L102.023 94.4496L85.7486 119.378L109.727 122.651L149.728 144.612V144.612ZM172.123 56.4353C179.75 60.6227 182.554 70.2414 178.369 77.8632C174.185 85.485 164.564 88.2824 156.937 84.0951C149.31 79.9078 146.506 70.289 150.691 62.6672C154.875 55.0454 164.496 52.248 172.123 56.4353Z" fill="white"/>
<path d="M195.495 13.8623C195.495 13.8623 206.564 29.5998 201.073 60.4383L179.951 42.2731L153.759 33.8243C172.347 13.8623 195.495 13.8623 195.495 13.8623Z" fill="#163EB2"/>
</g>
<defs>
<clipPath id="clip0">
<rect width="256" height="256" fill="white"/>
</clipPath>
</defs>
</svg>
