<svg width="100%" height="100%" viewBox="0 0 142 46" version="1.1" xmlns="http://www.w3.org/2000/svg" xml:space="preserve" fill-rule="evenodd" clip-rule="evenodd" stroke-linejoin="round" stroke-miterlimit="2"><g fill-rule="nonzero"><path id="Tracé_168_11_" d="M96.6 45.2H32.5l4.3-22.5h64.1l-4.3 22.5z" fill="#04b2d9"/><g id="Groupe_28_11_" fill="#fff"><path id="Tracé_169_11_" d="M2.4 13.2c.9.6 1.8.9 2.9 1 2.1 0 3.1-1 3.4-3.2L10.2.4h4.3l-1.6 11.5c-.5 3.3-2.8 6.5-7.9 6.5-3.3 0-4.8-1.3-5-1.5l2.4-3.7z"/><path id="Tracé_170_11_" d="M15.8 10.4C15.8 4.8 20.2 0 26.6 0c5.3 0 8.2 3.6 8.2 8 0 5.5-4.3 10.4-10.8 10.4-5.2 0-8.2-3.6-8.2-8zm14.6-1.9c.1-2.3-1.7-4.3-4-4.4H26c-3.1-.1-5.7 2.5-5.8 5.6v.2c-.1 2.3 1.6 4.3 3.9 4.4h.4c3.2.1 5.8-2.4 5.8-5.6.1-.1.1-.1.1-.2z"/><path id="Tracé_171_11_" d="M37.2 10.4l1.4-10h4.3l-1.4 10c-.3 2 .7 3.9 3.3 3.9 2.3.1 4.2-1.6 4.4-3.9l1.4-10h4.3l-1.4 10c-.5 4.6-4.5 8.1-9.2 8-5.1 0-7.8-3.5-7.1-8z"/><path id="Tracé_172_11_" d="M73.2 5.7c.1 2.6-1.4 5-3.8 6.1v.3l3.2 5.6v.3h-4.8l-2.7-5.1H61l-.9 5.1h-4.3L58.3.4h8.3c4.1 0 6.6 2 6.6 5.3zM66 4h-3.9l-.7 5.3h3.9c2.2 0 3.5-1.1 3.5-3-.1-1.5-1.1-2.2-2.8-2.3z"/><path id="Tracé_173_11_" d="M91.5 18h-1l-10-9.7-1.4 9.7h-4.2L77.4.4h1l10.1 9.3L89.8.4H94L91.5 18z"/><path id="Tracé_174_11_" d="M104.7.4h.7l6.8 17.6h-4.8l-.7-2.1H99L97.8 18H93L104.7.4zm-.6 7.3h-.1l-2.9 4.9-.3.3h5l-.1-.3-1.6-4.9z"/><path id="Tracé_175_11_" d="M113.6 18L116.1.4h4.3l-2 13.9h9l-.5 3.7h-13.3z"/><path id="Tracé_176_11_" d="M6.4 40.5H1l1.8-13.1h5.4c3.9 0 6.1 2.4 6.1 5.7 0 4.1-3.1 7.4-7.9 7.4zm-.8-10.3l-1.1 7.6h2c2.3.2 4.3-1.5 4.5-3.8v-.6c0-2.1-1.4-3.2-3.4-3.2h-2z"/><path id="Tracé_177_11_" d="M18 34.9l1-7.4h3.2l-1 7.4c-.3 1.2.4 2.5 1.7 2.8.3.1.5.1.8.1 1.7.1 3.1-1.2 3.2-2.9l1-7.4H31l-1 7.4c-.4 3.4-3.3 6-6.8 5.9-3.7 0-5.7-2.5-5.2-5.9z"/><path id="Tracé_178_11_" d="M50.3 39.2c-1.4 1.1-3.1 1.7-4.9 1.6-4 0-6.1-2.6-6.1-5.9 0-4.3 3.5-7.7 7.7-7.7h.3c3.2 0 4.4 1.6 4.4 1.6l-2.1 2.4c-.8-.6-1.7-.9-2.7-1-2.3-.1-4.3 1.7-4.4 4.1v.2c-.1 1.7 1.2 3.2 2.9 3.3h.4c1.1 0 2.1-.3 2.9-1l1.6 2.4z"/><path id="Tracé_179_11_" d="M53.4 34.9c0-4.3 3.5-7.7 7.7-7.7h.3c3.9 0 6.1 2.6 6.1 5.9 0 4.3-3.5 7.7-7.7 7.7h-.3c-3.9 0-6.1-2.6-6.1-5.9zm10.9-1.4c.1-1.7-1.2-3.2-2.9-3.3h-.3c-2.3 0-4.3 1.8-4.3 4.2v.1c-.1 1.7 1.2 3.2 2.9 3.3h.3c2.3.1 4.3-1.8 4.3-4.1v-.2z"/><path id="Tracé_180_11_" d="M73.8 40.5h-3.2l1.8-13.1h3.2l-1.8 13.1z"/><path id="Tracé_181_11_" d="M90.9 40.5h-.7l-7.4-7.2-1 7.2h-3.1l1.8-13.1h.7l7.5 6.9 1-6.9h3.1l-1.9 13.1z"/></g></g></svg>