<svg id="Calque_2" data-name="Calque 2" xmlns="http://www.w3.org/2000/svg" viewBox="0 0 41.1 41.1"><defs><style>.cls-1{fill:#fff;}.cls-2{fill:#f32735;}</style></defs><rect class="cls-1" width="41.1" height="41.1" rx="8.06"/><path class="cls-2" d="M35.19,21,23.1,9a1.77,1.77,0,0,0-2.52,0l-2.52,2.51,3.19,3.18a2.12,2.12,0,0,1,2.68,2.7L27,20.41a2.13,2.13,0,1,1-1.27,1.2l-2.86-2.86v7.53a2.12,2.12,0,1,1-2.44.4,2.09,2.09,0,0,1,.69-.46v-7.6A2.15,2.15,0,0,1,20,15.83l-3.14-3.14L8.54,21a1.77,1.77,0,0,0,0,2.52L20.63,35.59a1.77,1.77,0,0,0,2.52,0l12-12a1.79,1.79,0,0,0,0-2.52Z" transform="translate(-0.81 -0.81)"/></svg>