<svg id="Calque_2" data-name="Calque 2" xmlns="http://www.w3.org/2000/svg" viewBox="0 0 39.92 39.92"><defs><style>.cls-1{fill:#fff;}.cls-2{fill:#00bcf2;}</style></defs><rect class="cls-1" width="39.92" height="39.92" rx="7.83"/><path class="cls-2" d="M21.28,36a4.2,4.2,0,0,1-3-2.37A3.67,3.67,0,0,1,18,31.94a4.07,4.07,0,0,1,3-3.94A3.12,3.12,0,0,1,22,27.87a8.11,8.11,0,0,1,.87,0l.22,0,.27-.53a5.73,5.73,0,0,1,2.57-2.51,5,5,0,0,1,2.59-.6,4.33,4.33,0,0,1,1.43.15,6,6,0,0,1,4.27,4.3,7.9,7.9,0,0,1,.12,2.15l0,.32.29.06a2.54,2.54,0,0,1,1.71,1.39,2.41,2.41,0,0,1-.15,2.23,2.53,2.53,0,0,1-1,.87l-.41.21c-.12.06-13.14,0-13.46,0Zm13.53-.77a1.94,1.94,0,0,0,.88-1,1.72,1.72,0,0,0-.93-2.16A1.81,1.81,0,0,0,34,32a1.33,1.33,0,0,1-.54,0s.06-.27.12-.54a5.72,5.72,0,0,0,0-2.47,5.31,5.31,0,0,0-2.77-3.42,4.5,4.5,0,0,0-2-.47,4.87,4.87,0,0,0-2.87.65,5.25,5.25,0,0,0-2.29,2.75,1,1,0,0,1-.18.38L23,28.67a3.76,3.76,0,0,0-2.05,0,3.45,3.45,0,0,0-1.38.87,3.31,3.31,0,0,0-1,2.38A3.38,3.38,0,0,0,20.59,35c.69.33.45.32,7.5.31h6.46l.26-.13ZM16.15,32.6a13,13,0,0,1-5.47-1.78,3.06,3.06,0,0,1-1.14-1.23l-.16-.34V20.09l0-9.17.13-.25a4.24,4.24,0,0,1,2-1.67,15.32,15.32,0,0,1,5-1.3,32.49,32.49,0,0,1,4.73,0c3.31.44,5.87,1.52,6.69,2.82.32.51.31.32.31,7v6.11l-.18,0a4.58,4.58,0,0,1-.5.06,6.53,6.53,0,0,0-4.67,3.12l-.2.34-.78,0a4.31,4.31,0,0,0-2.09.52,4.72,4.72,0,0,0-2.4,3A3.88,3.88,0,0,0,17.33,32v.71H17c-.17,0-.56,0-.87-.08Zm4.76-8.45-.84-.71s.06-.11.2-.19a2.75,2.75,0,0,0,.86-.93,3,3,0,0,0,0-2.63,2.38,2.38,0,0,0-2.51-1.21,2.17,2.17,0,0,0-1.37.61,2.45,2.45,0,0,0-.81,2.14,1.9,1.9,0,0,0,.2,1,2.41,2.41,0,0,0,1.8,1.36c.27,0,.3.06.84.64l.57.61h1.89l-.8-.68Zm-2.39-1.9c-.38-.19-.53-.53-.53-1.21a1.5,1.5,0,0,1,.14-.8.89.89,0,0,1,.86-.53.79.79,0,0,1,.69.54,1.47,1.47,0,0,1,.15.82,1.25,1.25,0,0,1-.37,1.07.74.74,0,0,1-.94.11Zm-3.85,1.3a1.53,1.53,0,0,0,1.26-2c-.15-.44-.45-.71-1.21-1.07a4.57,4.57,0,0,1-.69-.38.27.27,0,0,1,0-.42c.2-.23.64-.24,1.25,0l.46.16,0-.62v-.61l-.31-.08a5.27,5.27,0,0,0-1.86,0,1.47,1.47,0,0,0-1.2,1.5c0,.77.34,1.13,1.56,1.65.52.22.58.63.12.79a.81.81,0,0,1-.61,0,3.89,3.89,0,0,1-.7-.26L12.39,22v1.34l.32.09.38.1a8.32,8.32,0,0,0,1.57,0ZM25.44,23v-.58H23.65V18.53H22.2v5h3.24V23Zm-4.3-10a10.35,10.35,0,0,0,3.41-.86,1.72,1.72,0,0,0,.8-.64c.59-.87-.73-1.74-3.29-2.17a20.17,20.17,0,0,0-7.59.22c-4.18,1.11-2.53,3.14,2.87,3.54a26.87,26.87,0,0,0,3.8-.09Z" transform="translate(-1.56 -1.28)"/></svg>